<?xml version="1.0" encoding="utf-8" ?>
<svg xmlns="http://www.w3.org/2000/svg" xmlns:xlink="http://www.w3.org/1999/xlink" width="956" height="956">
	<path fill="#193668" transform="scale(0.93376 0.93376)" d="M496.699 148.799Q500.387 148.605 504.078 148.499Q508.509 148.405 512.941 148.418Q517.373 148.432 521.804 148.552Q526.234 148.673 530.66 148.901Q535.087 149.129 539.506 149.464Q543.925 149.8 548.335 150.242Q552.745 150.684 557.143 151.233Q561.541 151.782 565.925 152.437Q570.308 153.092 574.674 153.853Q579.041 154.614 583.387 155.481Q587.734 156.348 592.058 157.32Q596.382 158.291 600.682 159.367Q604.981 160.444 609.253 161.624Q613.525 162.804 617.767 164.087Q622.01 165.37 626.22 166.756Q630.43 168.141 634.605 169.629Q638.78 171.116 642.918 172.704Q647.056 174.291 651.154 175.979Q655.252 177.667 659.308 179.453Q663.364 181.239 667.376 183.124Q671.388 185.008 675.353 186.988Q679.318 188.969 683.233 191.045Q687.149 193.122 691.013 195.292Q694.877 197.462 698.688 199.726Q702.499 201.989 706.253 204.344Q710.008 206.699 713.704 209.145Q717.401 211.59 721.037 214.124Q724.673 216.658 728.247 219.28Q731.82 221.901 735.33 224.609Q738.839 227.316 742.281 230.107Q745.724 232.899 749.098 235.773Q752.472 238.647 755.775 241.602Q759.078 244.557 762.309 247.591Q765.552 250.675 768.718 253.836Q771.885 256.998 774.973 260.236Q778.062 263.473 781.071 266.785Q784.08 270.097 787.007 273.482Q789.934 276.866 792.778 280.32Q795.623 283.775 798.382 287.298Q801.141 290.82 803.814 294.409Q806.486 297.998 809.071 301.651Q811.655 305.304 814.15 309.018Q816.645 312.733 819.049 316.507Q821.452 320.281 823.763 324.113Q826.074 327.945 828.292 331.832Q830.509 335.718 832.631 339.658Q834.752 343.597 836.778 347.588Q838.803 351.578 840.731 355.616Q842.658 359.654 844.487 363.738Q846.316 367.822 848.045 371.949Q849.774 376.076 851.401 380.244Q853.029 384.412 854.555 388.619Q856.081 392.825 857.504 397.068Q858.927 401.31 860.247 405.586Q861.566 409.861 862.781 414.168Q863.996 418.475 865.106 422.809Q866.215 427.144 867.219 431.505Q868.223 435.866 869.121 440.249Q870.018 444.633 870.809 449.037Q871.599 453.442 872.282 457.864Q872.965 462.286 873.541 466.724Q874.116 471.161 874.583 475.611Q875.05 480.062 875.409 484.522Q875.767 488.982 876.017 493.45Q876.267 497.918 876.408 502.39Q876.498 506.938 876.475 511.488Q876.453 516.037 876.32 520.584Q876.186 525.131 875.94 529.674Q875.695 534.216 875.338 538.752Q874.982 543.287 874.513 547.812Q874.045 552.337 873.466 556.849Q872.887 561.362 872.198 565.858Q871.508 570.355 870.708 574.833Q869.909 579.312 868.999 583.769Q868.09 588.227 867.071 592.66Q866.052 597.094 864.925 601.501Q863.798 605.909 862.563 610.287Q861.328 614.666 859.985 619.012Q858.643 623.359 857.195 627.671Q855.746 631.984 854.192 636.259Q852.638 640.535 850.98 644.771Q849.321 649.007 847.559 653.202Q845.797 657.396 843.933 661.545Q842.069 665.695 840.103 669.798Q838.137 673.9 836.071 677.953Q834.005 682.006 831.841 686.008Q829.676 690.009 827.414 693.956Q825.151 697.902 822.793 701.793Q820.434 705.683 817.981 709.514Q815.528 713.345 812.981 717.114Q810.434 720.884 807.796 724.59Q805.157 728.296 802.429 731.936Q799.7 735.576 796.883 739.148Q794.066 742.72 791.162 746.222Q788.258 749.724 785.269 753.153Q782.28 756.582 779.207 759.937Q776.135 763.292 772.981 766.571C763.606 776.317 753.384 785.065 742.892 793.573Q740.047 795.904 737.154 798.176Q734.261 800.448 731.322 802.661Q728.384 804.873 725.4 807.025Q722.416 809.176 719.389 811.266Q716.362 813.355 713.293 815.383Q710.223 817.41 707.113 819.373Q704.002 821.337 700.852 823.236Q697.702 825.136 694.514 826.97Q691.325 828.804 688.1 830.573Q684.874 832.341 681.613 834.043Q678.352 835.744 675.057 837.379Q671.761 839.013 668.433 840.58Q665.105 842.146 661.745 843.644Q658.385 845.141 654.996 846.57Q651.606 847.998 648.187 849.357Q644.769 850.715 641.323 852.003Q637.878 853.291 634.407 854.508Q630.935 855.725 627.44 856.87Q623.944 858.016 620.426 859.089Q616.908 860.162 613.368 861.163Q609.828 862.164 606.269 863.092Q602.709 864.02 599.132 864.875Q595.554 865.729 591.959 866.51Q588.365 867.291 584.755 867.998Q581.145 868.705 577.522 869.338Q573.898 869.97 570.262 870.529Q566.626 871.087 562.98 871.57Q559.333 872.053 555.678 872.462Q552.022 872.87 548.359 873.203Q544.695 873.536 541.026 873.794Q537.357 874.052 533.683 874.235Q530.009 874.417 526.332 874.524Q522.074 874.712 517.812 874.798Q513.55 874.884 509.288 874.87Q505.026 874.855 500.765 874.74Q496.504 874.624 492.247 874.407Q487.99 874.19 483.739 873.873Q479.489 873.555 475.247 873.137Q471.005 872.719 466.774 872.2Q462.544 871.681 458.326 871.062Q454.109 870.443 449.908 869.724Q445.706 869.005 441.523 868.187Q437.34 867.369 433.177 866.452Q429.015 865.535 424.875 864.519Q420.735 863.503 416.621 862.39Q412.507 861.276 408.42 860.065Q404.333 858.855 400.276 857.547Q396.219 856.24 392.194 854.837Q388.169 853.433 384.179 851.935Q380.188 850.437 376.234 848.844Q372.281 847.252 368.366 845.566Q364.451 843.88 360.577 842.102Q356.703 840.324 352.873 838.455Q349.042 836.585 345.257 834.625Q341.472 832.665 337.734 830.616Q333.996 828.567 330.309 826.43Q326.621 824.293 322.984 822.069Q319.348 819.845 315.766 817.536Q312.183 815.226 308.656 812.832Q305.13 810.438 301.661 807.961Q298.192 805.484 294.782 802.926Q291.373 800.368 288.026 797.729Q284.678 795.091 281.394 792.373Q278.11 789.656 274.891 786.862Q271.481 783.98 268.144 781.014Q264.807 778.048 261.545 775Q258.283 771.952 255.098 768.823Q251.913 765.695 248.807 762.488Q245.701 759.281 242.676 755.998Q239.65 752.715 236.708 749.358Q233.765 746 230.907 742.57Q228.049 739.141 225.277 735.641Q222.505 732.141 219.822 728.573Q217.138 725.005 214.544 721.372Q211.95 717.738 209.447 714.041Q206.945 710.344 204.535 706.586Q202.125 702.827 199.809 699.01Q197.494 695.193 195.274 691.32Q193.055 687.446 190.932 683.518Q188.81 679.591 186.785 675.611Q184.761 671.632 182.837 667.603Q180.913 663.575 179.09 659.5Q177.266 655.424 175.545 651.305Q173.824 647.186 172.205 643.025Q170.587 638.864 169.073 634.664Q167.559 630.464 166.15 626.228Q164.742 621.991 163.439 617.721Q162.136 613.451 160.939 609.15Q159.743 604.849 158.654 600.519Q157.566 596.189 156.585 591.834Q155.605 587.478 154.733 583.099Q153.861 578.721 153.099 574.322Q152.337 569.923 151.684 565.506Q151.031 561.09 150.489 556.659Q149.947 552.227 149.515 547.783Q149.083 543.34 148.762 538.887Q148.436 534.421 148.219 529.948Q148.003 525.475 147.896 520.999Q147.789 516.522 147.793 512.044Q147.796 507.566 147.909 503.09Q148.022 498.613 148.245 494.141Q148.468 489.668 148.8 485.203Q149.133 480.737 149.575 476.281Q150.017 471.825 150.568 467.381Q151.12 462.937 151.78 458.508Q152.44 454.079 153.209 449.667Q153.977 445.256 154.854 440.865Q155.731 436.473 156.715 432.105Q157.699 427.736 158.79 423.393Q159.881 419.05 161.079 414.736Q162.276 410.421 163.579 406.136Q164.882 401.852 166.289 397.601Q167.697 393.35 169.209 389.135Q170.72 384.92 172.335 380.743Q173.949 376.566 175.666 372.43Q177.382 368.294 179.2 364.202Q181.017 360.109 182.934 356.063Q184.852 352.016 186.868 348.017Q188.884 344.019 190.998 340.071Q193.111 336.123 195.321 332.229Q197.531 328.334 199.836 324.495Q202.141 320.655 204.539 316.874Q206.937 313.092 209.428 309.371Q211.918 305.649 214.499 301.99Q217.08 298.33 219.75 294.735Q222.42 291.141 225.177 287.612Q227.935 284.084 230.778 280.624Q233.621 277.165 236.548 273.776Q238.976 270.975 241.46 268.225Q243.944 265.474 246.484 262.774Q249.024 260.075 251.618 257.428Q254.212 254.781 256.86 252.187Q259.508 249.594 262.208 247.055Q264.908 244.516 267.659 242.032Q270.411 239.549 273.212 237.122Q276.014 234.695 278.864 232.326Q281.714 229.957 284.612 227.646Q287.51 225.335 290.455 223.084Q293.399 220.833 296.389 218.643Q299.379 216.452 302.413 214.323Q305.447 212.194 308.524 210.128Q311.6 208.061 314.719 206.057Q317.837 204.054 320.995 202.114Q324.154 200.175 327.351 198.3Q330.548 196.425 333.783 194.616Q337.018 192.807 340.289 191.064Q343.56 189.321 346.866 187.646Q350.172 185.97 353.512 184.362Q356.851 182.754 360.223 181.214Q363.594 179.675 366.997 178.204Q370.399 176.734 373.83 175.333Q377.262 173.932 380.721 172.602Q384.181 171.272 387.666 170.012Q391.152 168.752 394.663 167.564Q398.174 166.376 401.708 165.259Q405.242 164.143 408.799 163.099Q412.355 162.055 415.932 161.083Q419.509 160.112 423.104 159.214Q426.7 158.315 430.314 157.491Q433.927 156.666 437.557 155.915C457.166 151.933 476.789 150.304 496.699 148.799Z"/>
	<path fill="#FEFEFE" transform="scale(0.93376 0.93376)" d="M507.277 178.234C592.391 176.862 679.78 211.661 741.594 269.902Q744.591 272.749 747.516 275.67Q750.441 278.59 753.293 281.583Q756.145 284.575 758.921 287.637Q761.698 290.698 764.399 293.828Q767.099 296.958 769.721 300.153Q772.342 303.349 774.884 306.609Q777.426 309.868 779.887 313.19Q782.347 316.511 784.724 319.893Q787.101 323.274 789.394 326.714Q791.687 330.153 793.894 333.648Q796.101 337.143 798.221 340.692Q800.34 344.241 802.371 347.841Q804.402 351.441 806.344 355.09Q808.285 358.74 810.135 362.436Q811.985 366.132 813.744 369.873Q815.502 373.614 817.167 377.398Q818.832 381.181 820.403 385.004Q821.973 388.828 823.449 392.689Q824.924 396.55 826.304 400.447Q827.683 404.344 828.966 408.273Q830.248 412.203 831.433 416.163Q832.617 420.123 833.704 424.111Q834.79 428.099 835.777 432.113Q836.764 436.127 837.652 440.164Q838.539 444.202 839.326 448.259Q840.113 452.317 840.8 456.394Q841.486 460.47 842.071 464.562Q842.656 468.654 843.14 472.759Q843.624 476.864 844.006 480.98Q844.387 485.096 844.667 489.22Q844.947 493.344 845.124 497.473Q845.302 501.603 845.377 505.736C847.777 593.025 810.107 680.611 750.397 743.379C690.274 806.581 605.076 841.384 518.439 843.513C431.303 843.467 351.01 814.186 286.313 755.263Q280.486 749.88 274.936 744.212Q269.386 738.544 264.127 732.604Q258.868 726.665 253.915 720.469Q248.961 714.273 244.324 707.836C202.587 651.058 182.971 589.072 179.794 518.984Q179.515 511.144 179.65 503.299Q179.784 495.455 180.333 487.629Q180.882 479.803 181.842 472.016Q182.803 464.23 184.173 456.505Q184.671 453.553 185.222 450.611Q185.773 447.669 186.378 444.737Q186.982 441.805 187.639 438.884Q188.297 435.964 189.007 433.056Q189.718 430.148 190.48 427.253Q191.243 424.359 192.059 421.478Q192.874 418.598 193.741 415.733Q194.609 412.868 195.528 410.019Q196.447 407.17 197.418 404.339Q198.388 401.507 199.41 398.693Q200.432 395.879 201.505 393.085Q202.578 390.29 203.701 387.515Q204.824 384.74 205.997 381.986Q207.171 379.232 208.394 376.5Q209.617 373.768 210.889 371.058Q212.162 368.349 213.483 365.663Q214.804 362.977 216.174 360.315Q217.544 357.653 218.962 355.017Q220.38 352.38 221.845 349.77Q223.311 347.16 224.823 344.576Q226.336 341.993 227.895 339.438Q229.454 336.882 231.059 334.356Q232.664 331.829 234.315 329.332Q235.966 326.834 237.661 324.367Q239.357 321.901 241.097 319.465Q242.837 317.029 244.622 314.625Q246.406 312.222 248.233 309.851Q250.06 307.479 251.93 305.142Q253.8 302.804 255.713 300.501Q257.625 298.198 259.578 295.93Q261.532 293.662 263.526 291.429Q265.521 289.197 267.555 287.001Q270.025 284.331 272.552 281.714Q275.078 279.097 277.66 276.535Q280.242 273.972 282.878 271.466Q285.515 268.96 288.204 266.511Q290.894 264.061 293.635 261.67Q296.376 259.279 299.168 256.947Q301.96 254.616 304.801 252.344Q307.642 250.073 310.531 247.862Q313.42 245.652 316.356 243.505Q319.292 241.357 322.273 239.272Q325.254 237.188 328.279 235.168Q331.304 233.148 334.372 231.193Q337.44 229.238 340.549 227.35Q343.657 225.461 346.806 223.64Q349.954 221.818 353.141 220.064Q356.328 218.31 359.552 216.625Q362.776 214.94 366.035 213.325Q369.294 211.709 372.586 210.163Q375.879 208.618 379.205 207.143Q382.53 205.669 385.886 204.266Q389.242 202.862 392.627 201.532Q396.013 200.201 399.426 198.943Q402.839 197.685 406.278 196.5Q409.717 195.315 413.181 194.205Q416.645 193.094 420.132 192.058Q423.618 191.021 427.127 190.06Q430.635 189.099 434.163 188.213Q437.691 187.327 441.237 186.516Q444.783 185.706 448.346 184.972Q451.909 184.238 455.486 183.58Q459.064 182.923 462.655 182.342Q466.246 181.761 469.848 181.257C482.222 179.499 494.8 178.795 507.277 178.234Z"/>
	<defs>
		<linearGradient id="gradient_0" gradientUnits="userSpaceOnUse" x1="713.27478" y1="626.9837" x2="822.06018" y2="466.42859">
			<stop offset="0" stop-color="#16599B"/>
			<stop offset="1" stop-color="#1B81C7"/>
		</linearGradient>
	</defs>
	<path fill="url(#gradient_0)" transform="scale(0.93376 0.93376)" d="M750.953 439.672C751.009 436.909 750.854 434.511 750.301 431.797C758.126 433.89 763.783 438.973 770.675 443.004C780.691 448.861 791.269 455.003 801.879 459.677C807.039 461.95 812.107 460.894 817.184 462.288C818.207 462.569 818.788 463.267 819.447 464.043C820.531 473.531 821.889 483.101 822.422 492.635Q822.713 497.389 822.857 502.149Q823.002 506.91 822.999 511.672Q822.996 516.435 822.845 521.195Q822.695 525.956 822.398 530.709Q822.101 535.462 821.657 540.204Q821.213 544.946 820.623 549.672Q820.033 554.398 819.297 559.104Q818.561 563.809 817.68 568.49Q816.799 573.17 815.773 577.821Q814.748 582.472 813.58 587.089Q812.411 591.706 811.101 596.285Q809.79 600.864 808.339 605.4Q806.887 609.936 805.296 614.425Q803.706 618.914 801.977 623.352Q800.248 627.79 798.383 632.172Q796.518 636.554 794.518 640.877C790.033 650.659 782.115 667.368 775.846 675.594C776.237 671.61 778.987 667.537 778.804 663.61C778.686 661.07 774.699 657.492 772.833 655.776C766.219 649.695 735.197 627.503 727.061 628.096C724.399 628.29 723.046 629.293 721.35 631.28C720.813 631.91 720.566 631.858 719.794 632.091C721 629.168 723.58 626.053 725.305 623.35Q729.757 616.454 733.618 609.21C760.231 559.446 767.345 493.759 750.953 439.672Z"/>
	<defs>
		<linearGradient id="gradient_1" gradientUnits="userSpaceOnUse" x1="357.38483" y1="384.42276" x2="492.99924" y2="180.99965">
			<stop offset="0" stop-color="#165A9C"/>
			<stop offset="1" stop-color="#1D8DD4"/>
		</linearGradient>
	</defs>
	<path fill="url(#gradient_1)" transform="scale(0.93376 0.93376)" d="M259.802 331.082C261.223 327.86 264.344 324.398 266.545 321.589Q276.327 309.134 287.278 297.693Q298.23 286.252 310.246 275.935Q312.698 273.818 315.195 271.753Q317.692 269.688 320.232 267.676Q322.771 265.664 325.353 263.707Q327.935 261.749 330.558 259.847Q333.181 257.945 335.843 256.098Q338.506 254.252 341.207 252.462Q343.908 250.673 346.646 248.941Q349.384 247.209 352.159 245.535Q354.933 243.862 357.742 242.247Q360.551 240.633 363.394 239.078Q366.237 237.524 369.112 236.03Q371.987 234.536 374.893 233.103Q377.799 231.67 380.735 230.299Q383.67 228.928 386.634 227.62Q389.598 226.312 392.59 225.066Q395.581 223.821 398.598 222.639Q401.614 221.458 404.656 220.34Q407.697 219.222 410.761 218.17Q413.825 217.117 416.911 216.129Q419.997 215.141 423.103 214.219Q426.209 213.297 429.334 212.441Q432.459 211.585 435.601 210.795Q438.743 210.005 441.901 209.282Q445.06 208.559 448.233 207.903Q451.406 207.247 454.592 206.658Q457.778 206.069 460.976 205.548Q464.174 205.027 467.382 204.574Q470.59 204.121 473.807 203.736Q477.024 203.351 480.248 203.034Q483.473 202.717 486.703 202.468Q489.934 202.22 493.169 202.04Q496.404 201.86 499.642 201.748C510.068 201.356 520.681 201.059 531.099 201.845L528.622 202.037L528.207 202.623C529.48 204.665 531.737 205.661 532.98 207.708C533.245 208.438 533.501 209.168 533.784 209.892C535.299 213.772 535.36 217.893 537.141 221.814C540.877 230.038 547.791 236.281 549.901 245.436C550.765 249.184 549.654 253.873 550.083 257.82C549.709 259.054 549.669 259.163 548.673 259.973C546.09 260.347 543.135 259.426 540.909 260.846C515.704 257.137 486.983 256.349 463.203 266.756C454.238 270.679 445.987 276.218 438.163 282.051C429.681 288.373 423.479 294.626 421.94 305.592C419.728 321.352 425.156 338.498 426.808 354.223C424.417 352.506 422.29 351.05 419.216 351.62C417.478 351.943 416.182 353.027 415.226 354.471C411.016 360.83 412.766 370.687 414.421 377.624C416.456 386.153 420.514 400.534 428.486 405.566C430.02 406.534 431.802 407.234 433.465 407.95C439.406 419.906 445.186 431.852 452.964 442.765L450.981 442.552C450.911 442.499 450.855 442.422 450.772 442.394C449.857 442.088 449.517 442.099 448.754 441.418C443.072 436.352 436.87 432.752 430.688 428.378Q403.709 409.627 376.193 391.675L314.709 351.049C303.636 343.701 292.728 335.926 281.413 328.963C279.38 327.712 276.354 325.773 273.989 325.401C272.66 325.192 267.641 324.111 266.677 324.425C265.225 324.899 262.325 330.332 259.802 331.082Z"/>
	<defs>
		<linearGradient id="gradient_2" gradientUnits="userSpaceOnUse" x1="637.6377" y1="372.66492" x2="723.0705" y2="287.11493">
			<stop offset="0" stop-color="#0891D9"/>
			<stop offset="1" stop-color="#90CFE9"/>
		</linearGradient>
	</defs>
	<path fill="url(#gradient_2)" transform="scale(0.93376 0.93376)" d="M531.099 201.845C544.442 202.586 558.521 203.428 571.613 206.198C608.314 214.415 642.04 227.199 674.528 246.32C680.443 248.859 686.331 253.616 691.568 257.337C716.585 275.116 739.725 295.544 757.626 320.604C762.748 326.608 767.002 333.43 771.321 340.024Q775.28 345.981 778.96 352.115Q782.641 358.249 786.034 364.546Q789.427 370.843 792.527 377.289Q795.626 383.736 798.425 390.319Q801.224 396.902 803.716 403.606Q806.209 410.311 808.389 417.124Q810.57 423.937 812.433 430.842Q814.297 437.748 815.841 444.733C817.233 451.015 818.947 457.623 819.447 464.043C818.788 463.267 818.207 462.569 817.184 462.288C812.107 460.894 807.039 461.95 801.879 459.677C791.269 455.003 780.691 448.861 770.675 443.004C763.783 438.973 758.126 433.89 750.301 431.797C750.854 434.511 751.009 436.909 750.953 439.672C747.973 429 743.252 418.094 738.15 408.28C738.8 411.595 739.877 414.894 740.682 418.186C739.928 417.653 739.598 417.205 739.107 416.427C738.748 415.859 738.423 415.27 737.934 414.8C731.422 408.533 708.477 407.493 700.056 408.107C689.243 400.924 671.101 403.524 657.982 396.359C640.589 387.551 629.424 374.011 615.713 360.865Q613.998 363.926 612.349 367.023C611.959 362.642 611.563 357.737 609.232 353.879C607.626 351.22 606.045 351.908 603.534 350.984C601.337 350.176 601.049 347.985 601.253 345.956C603.031 328.275 605.577 312.416 595.57 296.419C583.609 277.297 562.298 265.856 540.909 260.846C543.135 259.426 546.09 260.347 548.673 259.973C549.669 259.163 549.709 259.054 550.083 257.82C549.654 253.873 550.765 249.184 549.901 245.436C547.791 236.281 540.877 230.038 537.141 221.814C535.36 217.893 535.299 213.772 533.784 209.892C533.501 209.168 533.245 208.438 532.98 207.708C531.737 205.661 529.48 204.665 528.207 202.623L528.622 202.037L531.099 201.845Z"/>
	<path fill="#099EDD" transform="scale(0.93376 0.93376)" d="M531.099 201.845C544.442 202.586 558.521 203.428 571.613 206.198C567.668 209.478 561.427 211.101 556.396 210.677C552.139 210.319 536.577 203.748 533.881 206.478C533.612 206.751 533.206 207.376 532.98 207.708C531.737 205.661 529.48 204.665 528.207 202.623L528.622 202.037L531.099 201.845Z"/>
	<path fill="#0590D9" transform="scale(0.93376 0.93376)" d="M609.231 344.983C615.3 347.097 652.449 387.771 660.315 395.245L660.333 395.207L661.24 396.203L660.514 396.636C660.333 396.577 660.154 396.51 659.971 396.459C659.229 396.255 658.732 396.286 657.982 396.359C640.589 387.551 629.424 374.011 615.713 360.865C614.471 357.566 611.457 355.609 609.619 352.734C608.776 351.415 608.203 349.391 608.61 347.869C608.881 346.851 609.073 346.033 609.231 344.983Z"/>
	<path fill="#099EDD" transform="scale(0.93376 0.93376)" d="M550.953 246.083C555.164 254.953 561.631 260.225 569.872 265.36C572.241 266.836 574.991 268.249 577.141 270.012C581.153 273.3 583.785 278.135 587.46 281.766C590.668 284.935 594.789 287.637 597.147 291.537C600.223 296.624 600.262 302.484 601.957 307.972C603.254 312.171 606.454 315.847 606.734 320.394C606.942 323.774 604.497 337.562 605.327 339.441C606.114 341.222 608.145 343.24 609.231 344.983C609.073 346.033 608.881 346.851 608.61 347.869C608.203 349.391 608.776 351.415 609.619 352.734C611.457 355.609 614.471 357.566 615.713 360.865Q613.998 363.926 612.349 367.023C611.959 362.642 611.563 357.737 609.232 353.879C607.626 351.22 606.045 351.908 603.534 350.984C601.337 350.176 601.049 347.985 601.253 345.956C603.031 328.275 605.577 312.416 595.57 296.419C583.609 277.297 562.298 265.856 540.909 260.846C543.135 259.426 546.09 260.347 548.673 259.973C549.669 259.163 549.709 259.054 550.083 257.82C551.561 254.002 551.156 250.085 550.953 246.083Z"/>
	<path fill="#90D6ED" transform="scale(0.93376 0.93376)" d="M674.528 246.32C680.443 248.859 686.331 253.616 691.568 257.337C716.585 275.116 739.725 295.544 757.626 320.604C756.029 320.687 753.026 318.499 751.268 318.08L752.687 320.023L752.567 320.392C746.319 317.331 740.843 313.283 735.232 309.214Q728.389 304.322 721.864 299.012Q715.339 293.703 709.158 287.997Q702.976 282.291 697.163 276.211Q691.349 270.131 685.926 263.7C682.43 259.614 677.786 254.742 675.725 249.793L676.701 248.901L676.517 248.309L674.574 247.424L674.528 246.32Z"/>
	<path fill="#FEFEFE" transform="scale(0.93376 0.93376)" d="M426.808 354.223C425.156 338.498 419.728 321.352 421.94 305.592C423.479 294.626 429.681 288.373 438.163 282.051C445.987 276.218 454.238 270.679 463.203 266.756C486.983 256.349 515.704 257.137 540.909 260.846C562.298 265.856 583.609 277.297 595.57 296.419C605.577 312.416 603.031 328.275 601.253 345.956C601.049 347.985 601.337 350.176 603.534 350.984C606.045 351.908 607.626 351.22 609.232 353.879C611.563 357.737 611.959 362.642 612.349 367.023C611.902 378.241 604.485 397.287 596.201 404.889C594.313 406.622 592.022 408.076 589.883 409.481C583.249 424.289 576.269 438.18 565.592 450.571C565.642 453.756 566.001 456.83 566.425 459.984L566.469 462.071C564.747 460.983 563.456 460.918 561.476 461.35C559.969 461.678 559.236 461.778 557.754 461.382C557.309 460.443 557.492 460.975 557.281 459.762C544.984 470.667 532.851 481.023 515.481 481.366C491.167 481.846 472.496 463.027 456.347 447.315L452.964 442.765C445.186 431.852 439.406 419.906 433.465 407.95C431.802 407.234 430.02 406.534 428.486 405.566C420.514 400.534 416.456 386.153 414.421 377.624C412.766 370.687 411.016 360.83 415.226 354.471C416.182 353.027 417.478 351.943 419.216 351.62C422.29 351.05 424.417 352.506 426.808 354.223Z"/>
	<path fill="#D84844" transform="scale(0.93376 0.93376)" d="M565.592 450.571C565.642 453.756 566.001 456.83 566.425 459.984L566.469 462.071C564.747 460.983 563.456 460.918 561.476 461.35C559.969 461.678 559.236 461.778 557.754 461.382C557.309 460.443 557.492 460.975 557.281 459.762C559.695 456.578 562.984 453.692 565.592 450.571Z"/>
	<defs>
		<linearGradient id="gradient_3" gradientUnits="userSpaceOnUse" x1="342.6033" y1="771.41565" x2="526.94745" y2="488.54648">
			<stop offset="0" stop-color="#172A5C"/>
			<stop offset="1" stop-color="#135499"/>
		</linearGradient>
	</defs>
	<path fill="url(#gradient_3)" transform="scale(0.93376 0.93376)" d="M259.802 331.082C262.325 330.332 265.225 324.899 266.677 324.425C267.641 324.111 272.66 325.192 273.989 325.401C276.354 325.773 279.38 327.712 281.413 328.963C292.728 335.926 303.636 343.701 314.709 351.049L376.193 391.675Q403.709 409.627 430.688 428.378C436.87 432.752 443.072 436.352 448.754 441.418C449.517 442.099 449.857 442.088 450.772 442.394C450.855 442.422 450.911 442.499 450.981 442.552L452.964 442.765L456.347 447.315L456.043 460.488L452.823 461.087C431.964 467.099 414.352 480.231 403.726 499.385Q401.976 502.529 400.658 505.877C390.469 511.391 378.784 512.852 368.055 516.94C338.671 528.137 311.843 542.189 286.361 560.667C265.191 512.224 268.267 457.359 286.996 408.707C287.206 408.163 287.081 408.346 287.345 408.043L286.569 407.58C286.783 407.348 287.116 407.263 287.4 407.124L287.279 406.952C282.428 414.134 279.252 423.39 276.443 431.568Q275.273 434.872 274.212 438.213Q273.152 441.554 272.202 444.928Q271.252 448.302 270.415 451.706Q269.577 455.109 268.852 458.539Q268.127 461.968 267.516 465.42Q266.905 468.871 266.408 472.341Q265.911 475.811 265.529 479.295Q265.147 482.78 264.88 486.275Q264.613 489.77 264.462 493.272Q264.311 496.774 264.276 500.279Q264.24 503.784 264.32 507.288Q264.401 510.793 264.597 514.292Q264.792 517.792 265.104 521.283Q265.415 524.775 265.842 528.254Q266.268 531.733 266.81 535.196Q267.351 538.66 268.006 542.103Q268.597 545.024 269.26 547.929Q269.922 550.834 270.655 553.723Q271.388 556.611 272.19 559.481Q272.993 562.35 273.866 565.2Q274.738 568.049 275.679 570.876Q276.621 573.704 277.631 576.507Q278.64 579.311 279.718 582.089Q280.796 584.867 281.941 587.618Q283.086 590.369 284.297 593.092Q285.509 595.814 286.786 598.507Q288.064 601.199 289.406 603.859Q290.749 606.519 292.155 609.146Q293.562 611.773 295.033 614.365Q296.503 616.957 298.036 619.512Q299.569 622.068 301.163 624.585Q302.758 627.103 304.413 629.58Q306.068 632.058 307.783 634.495Q309.498 636.932 311.272 639.326Q313.046 641.721 314.877 644.071Q316.709 646.422 318.597 648.727Q320.485 651.033 322.429 653.291Q324.372 655.55 326.371 657.761Q328.369 659.972 330.42 662.133Q332.471 664.295 334.574 666.406Q336.677 668.517 338.831 670.576Q340.985 672.635 343.188 674.642Q345.391 676.648 347.643 678.6Q349.894 680.552 352.193 682.449Q354.491 684.346 356.834 686.186Q359.178 688.026 361.566 689.809Q363.954 691.592 366.384 693.316Q368.814 695.04 371.286 696.705Q373.851 698.437 376.457 700.105Q379.064 701.774 381.71 703.378Q384.357 704.982 387.042 706.522Q389.727 708.061 392.448 709.534Q395.17 711.008 397.926 712.414Q400.683 713.821 403.473 715.16Q406.264 716.498 409.086 717.769Q411.908 719.039 414.76 720.24Q417.612 721.441 420.493 722.572Q423.374 723.703 426.281 724.764Q429.189 725.824 432.121 726.813Q435.054 727.802 438.009 728.72Q440.965 729.637 443.942 730.482Q446.92 731.327 449.917 732.099Q452.913 732.871 455.928 733.569Q458.943 734.268 461.974 734.893Q465.005 735.517 468.051 736.068Q471.096 736.619 474.154 737.095Q477.212 737.571 480.281 737.972Q483.35 738.374 486.427 738.7Q489.505 739.026 492.589 739.278Q495.674 739.529 498.764 739.705Q501.853 739.88 504.947 739.981Q508.04 740.081 511.135 740.106Q514.229 740.131 517.324 740.08Q520.418 740.029 523.51 739.903Q526.602 739.777 529.691 739.575Q532.779 739.374 535.861 739.097Q538.944 738.82 542.018 738.468Q545.093 738.116 548.158 737.689Q551.224 737.261 554.277 736.76Q557.331 736.258 560.372 735.682Q562.751 735.21 565.12 734.693Q567.49 734.176 569.849 733.615Q572.209 733.053 574.557 732.446Q576.905 731.84 579.241 731.189Q581.578 730.539 583.901 729.844Q586.225 729.149 588.535 728.41Q590.845 727.671 593.14 726.888Q595.436 726.106 597.716 725.28Q599.996 724.454 602.26 723.585Q604.525 722.716 606.772 721.804Q609.019 720.893 611.249 719.938Q613.479 718.984 615.69 717.988Q617.901 716.992 620.093 715.954Q622.285 714.916 624.457 713.836Q626.628 712.757 628.779 711.637Q630.93 710.516 633.06 709.355Q635.189 708.195 637.296 706.994Q639.403 705.792 641.487 704.552Q643.571 703.311 645.63 702.031Q647.69 700.751 649.726 699.432Q651.761 698.113 653.771 696.756Q655.781 695.399 657.765 694.003Q659.748 692.608 661.705 691.176Q663.662 689.744 665.592 688.274Q667.521 686.805 669.423 685.299Q671.324 683.794 673.196 682.252Q675.069 680.711 676.912 679.134Q678.755 677.558 680.567 675.947Q682.38 674.335 684.162 672.69Q685.944 671.045 687.694 669.366Q689.444 667.687 691.162 665.976Q692.881 664.264 694.566 662.52C703.821 652.871 711.472 642.486 719.794 632.091C720.566 631.858 720.813 631.91 721.35 631.28C723.046 629.293 724.399 628.29 727.061 628.096C735.197 627.503 766.219 649.695 772.833 655.776C774.699 657.492 778.686 661.07 778.804 663.61C778.987 667.537 776.237 671.61 775.846 675.594C772.627 683.238 762.948 695.582 757.602 702.371Q755.205 705.453 752.732 708.474Q750.26 711.495 747.712 714.453Q745.164 717.411 742.543 720.305Q739.922 723.198 737.23 726.026Q734.537 728.853 731.775 731.612Q729.013 734.37 726.182 737.059Q723.352 739.748 720.455 742.366Q717.558 744.983 714.597 747.527Q711.635 750.071 708.611 752.54Q705.587 755.009 702.502 757.402Q699.417 759.795 696.273 762.109Q693.129 764.424 689.929 766.66Q686.728 768.895 683.472 771.05Q680.217 773.204 676.908 775.277Q673.6 777.35 670.24 779.339Q666.881 781.328 663.473 783.232Q660.065 785.137 656.61 786.956Q653.156 788.774 649.657 790.506Q646.158 792.238 642.616 793.881Q639.075 795.525 635.494 797.08Q631.913 798.634 628.294 800.099Q624.675 801.563 621.02 802.937Q617.366 804.31 613.678 805.592Q609.99 806.874 606.272 808.063Q602.553 809.252 598.806 810.347Q595.059 811.443 591.285 812.444Q587.512 813.446 583.714 814.353Q579.917 815.26 576.098 816.071Q572.28 816.883 568.442 817.599Q564.604 818.315 560.749 818.934Q556.895 819.554 553.026 820.077Q549.157 820.6 545.276 821.026Q541.494 821.435 537.703 821.751Q533.912 822.067 530.114 822.29Q526.317 822.513 522.515 822.643Q518.713 822.773 514.909 822.81Q511.105 822.847 507.302 822.79Q503.498 822.734 499.697 822.585Q495.896 822.436 492.099 822.193Q488.303 821.951 484.513 821.616Q480.724 821.281 476.944 820.853Q473.164 820.425 469.396 819.905Q465.627 819.385 461.873 818.772Q458.118 818.16 454.38 817.456Q450.642 816.752 446.922 815.957Q443.202 815.161 439.502 814.275Q435.803 813.389 432.126 812.413Q428.449 811.436 424.798 810.37Q421.146 809.304 417.522 808.149Q413.897 806.994 410.302 805.75Q406.707 804.507 403.143 803.175Q399.58 801.844 396.05 800.426Q392.52 799.008 389.026 797.504Q385.532 796 382.075 794.411Q378.619 792.822 375.203 791.148Q371.786 789.475 368.412 787.719Q365.037 785.963 361.707 784.124Q358.377 782.286 355.092 780.366Q351.808 778.447 348.572 776.448Q345.335 774.448 342.149 772.37Q338.962 770.293 335.828 768.137Q332.693 765.982 329.612 763.751Q326.531 761.52 323.505 759.214Q320.48 756.907 317.512 754.528Q314.536 752.164 311.618 749.727Q308.701 747.291 305.844 744.783Q302.987 742.276 300.193 739.699Q297.398 737.122 294.668 734.478Q291.938 731.833 289.273 729.123Q286.608 726.412 284.01 723.637Q281.413 720.862 278.884 718.024Q276.355 715.186 273.897 712.287Q271.439 709.388 269.052 706.43Q266.665 703.471 264.352 700.455Q262.039 697.439 259.8 694.367Q257.561 691.296 255.398 688.17Q253.236 685.044 251.15 681.866Q249.065 678.688 247.058 675.46Q245.051 672.232 243.124 668.956Q241.197 665.679 239.35 662.357Q237.504 659.034 235.74 655.667Q233.975 652.301 232.294 648.892Q230.613 645.482 229.016 642.033Q227.419 638.584 225.906 635.097Q224.394 631.609 222.968 628.086Q221.542 624.562 220.203 621.005Q218.863 617.448 217.612 613.859Q216.36 610.27 215.196 606.651Q214.033 603.032 212.959 599.386Q211.884 595.74 210.9 592.069Q209.915 588.397 209.021 584.703Q208.127 581.009 207.323 577.293Q206.52 573.578 205.807 569.844Q205.095 566.111 204.475 562.361Q203.854 558.61 203.326 554.846Q202.798 551.082 202.362 547.306Q202.04 544.314 201.775 541.316Q201.51 538.318 201.304 535.316Q201.097 532.314 200.948 529.308Q200.799 526.302 200.708 523.294Q200.617 520.286 200.584 517.276Q200.551 514.267 200.577 511.258Q200.602 508.248 200.685 505.24Q200.768 502.232 200.909 499.226Q201.05 496.22 201.25 493.217Q201.449 490.214 201.706 487.215Q201.963 484.217 202.277 481.224Q202.592 478.231 202.964 475.245Q203.337 472.258 203.767 469.28Q204.197 466.301 204.684 463.331Q205.171 460.362 205.715 457.402Q206.26 454.442 206.861 451.493Q207.463 448.544 208.121 445.608Q208.779 442.671 209.493 439.748Q210.208 436.824 210.979 433.915Q211.75 431.006 212.577 428.112Q213.403 425.219 214.286 422.342Q215.168 419.464 216.106 416.605Q217.044 413.745 218.036 410.904Q219.029 408.063 220.076 405.242Q221.124 402.42 222.225 399.62Q223.327 396.819 224.482 394.04Q225.637 391.261 226.846 388.505Q228.055 385.749 229.316 383.017Q230.578 380.285 231.892 377.577Q233.206 374.87 234.572 372.188Q235.938 369.507 237.355 366.852Q238.773 364.197 240.241 361.57C246.069 351.14 252.365 340.458 259.802 331.082Z"/>
	<path fill="#105CA7" transform="scale(0.93376 0.93376)" d="M450.981 442.552L452.964 442.765L456.347 447.315L456.043 460.488L452.823 461.087C453.874 459.561 454.203 458.522 454.396 456.734C454.793 453.05 454.551 448.596 452.061 445.602C451.449 444.866 451.213 444.479 451.082 443.504C451.04 443.187 451.015 442.869 450.981 442.552Z"/>
	<path fill="#FEFEFE" transform="scale(0.93376 0.93376)" d="M615.713 360.865C629.424 374.011 640.589 387.551 657.982 396.359C671.101 403.524 689.243 400.924 700.056 408.107C708.477 407.493 731.422 408.533 737.934 414.8C738.423 415.27 738.748 415.859 739.107 416.427C739.598 417.205 739.928 417.653 740.682 418.186C739.877 414.894 738.8 411.595 738.15 408.28C743.252 418.094 747.973 429 750.953 439.672C767.345 493.759 760.231 559.446 733.618 609.21Q729.757 616.454 725.305 623.35C723.58 626.053 721 629.168 719.794 632.091C711.472 642.486 703.821 652.871 694.566 662.52Q692.881 664.264 691.162 665.976Q689.444 667.687 687.694 669.366Q685.944 671.045 684.162 672.69Q682.38 674.335 680.567 675.947Q678.755 677.558 676.912 679.134Q675.069 680.711 673.197 682.252Q671.324 683.794 669.423 685.299Q667.521 686.805 665.592 688.274Q663.662 689.744 661.705 691.176Q659.748 692.608 657.765 694.003Q655.781 695.399 653.771 696.756Q651.761 698.113 649.726 699.432Q647.69 700.751 645.631 702.031Q643.571 703.311 641.487 704.552Q639.403 705.792 637.296 706.994Q635.189 708.195 633.06 709.355Q630.93 710.516 628.779 711.637Q626.628 712.757 624.457 713.836Q622.285 714.916 620.093 715.954Q617.901 716.992 615.69 717.988Q613.479 718.984 611.249 719.938Q609.019 720.893 606.772 721.804Q604.525 722.716 602.26 723.585Q599.996 724.454 597.716 725.28Q595.436 726.106 593.14 726.888Q590.845 727.671 588.535 728.41Q586.225 729.149 583.901 729.844Q581.578 730.539 579.241 731.189Q576.905 731.84 574.557 732.446Q572.209 733.053 569.849 733.614Q567.49 734.176 565.12 734.693Q562.751 735.21 560.372 735.682Q557.331 736.258 554.277 736.76Q551.224 737.261 548.158 737.689Q545.093 738.116 542.018 738.468Q538.944 738.82 535.861 739.097Q532.779 739.374 529.691 739.575Q526.602 739.777 523.51 739.903Q520.418 740.029 517.324 740.08Q514.229 740.131 511.135 740.106Q508.04 740.081 504.947 739.981Q501.853 739.88 498.764 739.705Q495.674 739.529 492.589 739.278Q489.505 739.026 486.427 738.7Q483.35 738.374 480.281 737.972Q477.212 737.571 474.154 737.095Q471.096 736.619 468.051 736.068Q465.006 735.517 461.974 734.893Q458.943 734.268 455.928 733.569Q452.913 732.871 449.917 732.099Q446.92 731.327 443.942 730.482Q440.965 729.637 438.009 728.72Q435.054 727.802 432.121 726.813Q429.189 725.824 426.281 724.764Q423.374 723.703 420.493 722.572Q417.612 721.441 414.76 720.24Q411.908 719.039 409.086 717.769Q406.264 716.498 403.473 715.159Q400.683 713.821 397.926 712.414Q395.17 711.008 392.448 709.534Q389.727 708.061 387.042 706.522Q384.357 704.982 381.71 703.378Q379.064 701.774 376.457 700.105Q373.851 698.437 371.286 696.705Q368.814 695.04 366.384 693.316Q363.954 691.592 361.566 689.809Q359.178 688.026 356.834 686.186Q354.491 684.346 352.193 682.449Q349.894 680.552 347.643 678.6Q345.391 676.648 343.188 674.642Q340.985 672.635 338.831 670.576Q336.677 668.517 334.574 666.406Q332.471 664.295 330.42 662.133Q328.369 659.972 326.371 657.761Q324.373 655.55 322.429 653.291Q320.485 651.033 318.597 648.727Q316.709 646.422 314.877 644.071Q313.046 641.721 311.272 639.326Q309.498 636.932 307.783 634.495Q306.068 632.058 304.413 629.58Q302.758 627.103 301.163 624.585Q299.569 622.068 298.036 619.512Q296.503 616.957 295.033 614.365Q293.562 611.773 292.156 609.146Q290.749 606.519 289.406 603.859Q288.064 601.199 286.786 598.506Q285.509 595.814 284.297 593.092Q283.086 590.369 281.941 587.618Q280.796 584.867 279.718 582.089Q278.64 579.311 277.631 576.507Q276.621 573.704 275.679 570.876Q274.738 568.049 273.866 565.2Q272.993 562.35 272.19 559.481Q271.388 556.611 270.655 553.723Q269.922 550.834 269.26 547.929Q268.597 545.024 268.006 542.103Q267.351 538.66 266.81 535.196Q266.268 531.733 265.842 528.254Q265.415 524.775 265.104 521.283Q264.792 517.792 264.597 514.292Q264.401 510.793 264.32 507.288Q264.24 503.784 264.276 500.279Q264.311 496.774 264.462 493.272Q264.613 489.77 264.88 486.275Q265.147 482.78 265.529 479.296Q265.911 475.811 266.408 472.341Q266.905 468.872 267.516 465.42Q268.127 461.968 268.852 458.539Q269.577 455.109 270.415 451.706Q271.252 448.302 272.202 444.928Q273.152 441.554 274.212 438.213Q275.273 434.872 276.443 431.568C279.252 423.39 282.428 414.134 287.279 406.952L287.4 407.124C287.116 407.263 286.783 407.348 286.569 407.58L287.345 408.043C287.081 408.346 287.206 408.163 286.996 408.707C268.267 457.359 265.191 512.224 286.361 560.667C311.843 542.189 338.671 528.137 368.055 516.94C378.784 512.852 390.469 511.391 400.658 505.877Q401.976 502.529 403.726 499.385C414.352 480.231 431.964 467.099 452.823 461.087L456.043 460.488L456.347 447.315C472.496 463.027 491.167 481.846 515.481 481.366C532.851 481.023 544.984 470.667 557.281 459.762C557.492 460.975 557.309 460.443 557.754 461.382C559.236 461.778 559.969 461.678 561.476 461.35C563.456 460.918 564.747 460.983 566.469 462.071L566.425 459.984C566.001 456.83 565.642 453.756 565.592 450.571C576.269 438.18 583.249 424.289 589.883 409.481C592.022 408.076 594.313 406.622 596.201 404.889C604.485 397.287 611.902 378.241 612.349 367.023Q613.998 363.926 615.713 360.865Z"/>
	<path fill="#105CA7" transform="scale(0.93376 0.93376)" d="M616.5 503.913L618.765 503.934C619.487 504.711 619.318 504.313 619.497 505.004L619.534 558.948C619.562 561.778 619.714 565.077 617.593 567.221L617.02 566.962C615.614 562.259 616.361 555.416 616.321 550.478C616.196 534.96 616.492 519.434 616.5 503.913Z"/>
	<defs>
		<linearGradient id="gradient_4" gradientUnits="userSpaceOnUse" x1="599.38306" y1="673.46234" x2="631.21747" y2="578.23694">
			<stop offset="0" stop-color="#912322"/>
			<stop offset="1" stop-color="#C03D3B"/>
		</linearGradient>
	</defs>
	<path fill="url(#gradient_4)" transform="scale(0.93376 0.93376)" d="M597.139 577.665Q615.91 577.531 634.674 578.038L634.72 608.789L664.978 608.496L664.99 644.514C654.891 644.344 644.774 644.417 634.682 643.975C634.637 649.058 635.764 671.124 633.94 674.225C621.655 674.163 609.341 674.481 597.049 674.494C596.694 664.402 596.607 654.401 596.755 644.307C586.73 643.864 576.427 644.47 566.364 644.481C565.799 632.443 565.998 620.361 566.007 608.313Q581.263 608.361 596.518 608.253C596.374 598.364 595.242 587.374 597.139 577.665Z"/>
	<path fill="#193668" transform="scale(0.93376 0.93376)" d="M398.056 585.034C398.199 553.342 393.7 530.525 412.384 502.121C423.137 485.773 436.684 474.88 456.003 470.82L456.06 488.642C442.323 491.461 435.292 496.578 426.928 507.731L425.258 510.162C422.692 515.575 419.102 520.4 416.977 526.063C411.436 540.831 413.449 567.812 413.489 584.156C416.595 584.898 419.721 585.771 422.682 586.978C432.65 591.043 440.359 598.534 444.451 608.521Q444.837 609.469 445.177 610.435Q445.516 611.402 445.807 612.383Q446.098 613.365 446.34 614.36Q446.582 615.355 446.775 616.361Q446.968 617.366 447.11 618.38Q447.253 619.394 447.346 620.414Q447.438 621.434 447.48 622.457Q447.522 623.48 447.514 624.504Q447.505 625.528 447.446 626.55Q447.387 627.573 447.278 628.591Q447.168 629.609 447.008 630.62Q446.849 631.632 446.639 632.634Q446.43 633.636 446.171 634.627Q445.912 635.618 445.605 636.595Q445.298 637.572 444.942 638.532Q444.587 639.492 444.185 640.434Q443.788 641.343 443.347 642.232Q442.905 643.121 442.421 643.987Q441.936 644.853 441.41 645.694Q440.883 646.535 440.316 647.349Q439.748 648.163 439.142 648.948Q438.535 649.733 437.89 650.487Q437.245 651.241 436.564 651.963Q435.883 652.684 435.167 653.371Q434.451 654.059 433.703 654.71Q432.954 655.361 432.174 655.974Q431.394 656.588 430.585 657.162Q429.775 657.736 428.939 658.27Q428.102 658.803 427.241 659.295Q426.379 659.787 425.494 660.236Q424.609 660.684 423.703 661.089Q422.797 661.494 421.872 661.853C411.768 665.8 400.576 665.031 390.725 660.641C381.075 656.341 373.64 647.817 370.02 637.968Q369.673 637.039 369.373 636.095Q369.072 635.15 368.82 634.191Q368.568 633.232 368.364 632.262Q368.161 631.292 368.006 630.312Q367.852 629.333 367.747 628.347Q367.642 627.362 367.587 626.372Q367.532 625.382 367.527 624.391Q367.521 623.399 367.566 622.409Q367.611 621.418 367.705 620.432Q367.8 619.445 367.944 618.464Q368.088 617.483 368.281 616.511Q368.474 615.538 368.716 614.577Q368.958 613.616 369.248 612.668Q369.539 611.72 369.876 610.788Q370.214 609.855 370.597 608.941Q370.981 608.027 371.411 607.134C376.84 595.693 386.442 589.213 398.056 585.034Z"/>
	<path fill="#FEFEFE" transform="scale(0.93376 0.93376)" d="M403.418 598.124C408.013 597.682 412.298 598.002 416.63 599.667C423.463 602.293 429.245 607.987 432.082 614.74C434.77 621.137 434.784 628.746 431.935 635.093C428.267 643.268 421.437 647.421 413.446 650.472C407.165 650.684 401.656 650.497 395.907 647.482C389.703 644.23 384.67 638.48 382.57 631.775Q382.381 631.158 382.223 630.532Q382.065 629.907 381.939 629.274Q381.812 628.641 381.718 628.003Q381.623 627.365 381.561 626.722Q381.498 626.08 381.468 625.436Q381.437 624.791 381.439 624.146Q381.441 623.5 381.475 622.856Q381.509 622.212 381.575 621.57Q381.642 620.928 381.74 620.29Q381.838 619.652 381.968 619.02Q382.099 618.388 382.26 617.764Q382.422 617.139 382.614 616.523Q382.807 615.907 383.03 615.302Q383.253 614.696 383.506 614.102Q383.759 613.509 384.042 612.929Q384.324 612.348 384.635 611.783C388.647 604.555 395.643 600.247 403.418 598.124Z"/>
	<defs>
		<linearGradient id="gradient_5" gradientUnits="userSpaceOnUse" x1="478.42023" y1="618.77533" x2="533.67731" y2="451.00681">
			<stop offset="0" stop-color="#8F2625"/>
			<stop offset="1" stop-color="#D74744"/>
		</linearGradient>
	</defs>
	<path fill="url(#gradient_5)" transform="scale(0.93376 0.93376)" d="M456.347 447.315C472.496 463.027 491.167 481.846 515.481 481.366C532.851 481.023 544.984 470.667 557.281 459.762C557.492 460.975 557.309 460.443 557.754 461.382C559.236 461.778 559.969 461.678 561.476 461.35C563.456 460.918 564.747 460.983 566.469 462.071L566.58 468.285C576.591 468.764 586.311 471.254 593.344 478.863C602.199 488.445 601.079 499.438 603.44 511.363C603.645 513.355 603.066 512.962 601.35 513.599C597.191 515.146 581.236 539.006 577.38 544.32C556.041 573.724 533.647 602.397 513.192 632.425C509.232 627.689 505.774 622.353 502.153 617.339Q490.876 601.754 479.787 586.034Q452.821 547.883 425.258 510.162L426.928 507.731C435.292 496.578 442.323 491.461 456.06 488.642L456.003 470.82L456.043 460.488L456.347 447.315Z"/>
	<path fill="#FEFEFE" transform="scale(0.93376 0.93376)" d="M456.06 488.642C456.743 493.675 456.531 498.852 456.527 503.925C446.367 504.625 436.528 507.018 426.928 507.731C435.292 496.578 442.323 491.461 456.06 488.642Z"/>
	<path fill="#FEFEFE" transform="scale(0.93376 0.93376)" d="M567.019 491.52C576.65 495.164 590.714 497.567 598.795 503.571Q600.152 507.072 601.372 510.623C590.192 507.322 578.389 506.395 566.981 504.202L567.019 491.52Z"/>
	<path fill="#105CA7" transform="scale(0.93376 0.93376)" d="M566.58 468.285C576.591 468.764 586.311 471.254 593.344 478.863C602.199 488.445 601.079 499.438 603.44 511.363C602.778 511.271 601.999 510.867 601.372 510.623Q600.152 507.072 598.795 503.571C590.714 497.567 576.65 495.164 567.019 491.52Q567.107 479.897 566.58 468.285Z"/>
	<path fill="#137BC1" transform="scale(0.93376 0.93376)" d="M615.713 360.865C629.424 374.011 640.589 387.551 657.982 396.359C671.101 403.524 689.243 400.924 700.056 408.107C708.477 407.493 731.422 408.533 737.934 414.8C738.423 415.27 738.748 415.859 739.107 416.427C739.598 417.205 739.928 417.653 740.682 418.186C743.782 424.36 745.253 431.711 746.91 438.397Q747.815 442.129 748.589 445.89Q749.364 449.652 750.006 453.438Q750.649 457.224 751.16 461.03Q751.671 464.836 752.049 468.657Q752.427 472.479 752.671 476.311Q752.916 480.144 753.027 483.982Q753.138 487.821 753.115 491.661Q753.092 495.501 752.936 499.338Q752.78 503.175 752.49 507.004Q752.2 510.833 751.777 514.65Q751.354 518.467 750.798 522.267Q750.242 526.066 749.555 529.844Q748.867 533.623 748.048 537.375Q747.229 541.126 746.28 544.847Q745.331 548.568 744.253 552.254Q743.176 555.94 741.97 559.586Q740.775 563.18 739.544 566.762C714.26 531.914 658.583 517.912 619.497 505.004C619.318 504.313 619.487 504.711 618.765 503.934L616.5 503.913C615.431 492.409 612.772 483.158 604.661 474.536C594.468 463.701 580.844 460.416 566.425 459.984C566.001 456.83 565.642 453.756 565.592 450.571C576.269 438.18 583.249 424.289 589.883 409.481C592.022 408.076 594.313 406.622 596.201 404.889C604.485 397.287 611.902 378.241 612.349 367.023Q613.998 363.926 615.713 360.865Z"/>
</svg>
